<svg width="30" height="30" viewBox="0 0 30 30" fill="none" xmlns="http://www.w3.org/2000/svg">
<path fill-rule="evenodd" clip-rule="evenodd" d="M8.95331 0.421008C10.5173 0.349008 11.016 0.333008 15 0.333008C18.984 0.333008 19.4826 0.350341 21.0453 0.421008C22.608 0.491674 23.6746 0.741008 24.608 1.10234C25.5853 1.47167 26.472 2.04901 27.2053 2.79567C27.952 3.52767 28.528 4.41301 28.896 5.39167C29.2586 6.32501 29.5066 7.39167 29.5786 8.95167C29.6506 10.5183 29.6666 11.017 29.6666 14.9997C29.6666 18.9837 29.6493 19.4823 29.5786 21.0463C29.508 22.6063 29.2586 23.673 28.896 24.6063C28.528 25.5851 27.951 26.4719 27.2053 27.205C26.472 27.9517 25.5853 28.5277 24.608 28.8957C23.6746 29.2583 22.608 29.5063 21.048 29.5783C19.4826 29.6503 18.984 29.6663 15 29.6663C11.016 29.6663 10.5173 29.649 8.95331 29.5783C7.39331 29.5077 6.32665 29.2583 5.39331 28.8957C4.41454 28.5276 3.52774 27.9507 2.79465 27.205C2.04849 26.4726 1.47107 25.5862 1.10265 24.6077C0.741313 23.6743 0.493313 22.6077 0.421313 21.0477C0.349313 19.481 0.333313 18.9823 0.333313 14.9997C0.333313 11.0157 0.350646 10.517 0.421313 8.95434C0.49198 7.39167 0.741313 6.32501 1.10265 5.39167C1.47161 4.41312 2.04947 3.52676 2.79598 2.79434C3.52803 2.04834 4.41394 1.47093 5.39198 1.10234C6.32531 0.741008 7.39198 0.493008 8.95198 0.421008H8.95331ZM20.9266 3.06101C19.38 2.99034 18.916 2.97567 15 2.97567C11.084 2.97567 10.62 2.99034 9.07331 3.06101C7.64264 3.12634 6.86665 3.36501 6.34931 3.56634C5.66531 3.83301 5.17598 4.14901 4.66265 4.66234C4.17604 5.13574 3.80155 5.71205 3.56665 6.34901C3.36531 6.86634 3.12665 7.64234 3.06131 9.07301C2.99065 10.6197 2.97598 11.0837 2.97598 14.9997C2.97598 18.9157 2.99065 19.3797 3.06131 20.9263C3.12665 22.357 3.36531 23.133 3.56665 23.6503C3.80131 24.2863 4.17598 24.8637 4.66265 25.337C5.13598 25.8237 5.71331 26.1983 6.34931 26.433C6.86665 26.6343 7.64264 26.873 9.07331 26.9383C10.62 27.009 11.0826 27.0237 15 27.0237C18.9173 27.0237 19.38 27.009 20.9266 26.9383C22.3573 26.873 23.1333 26.6343 23.6506 26.433C24.3346 26.1663 24.824 25.8503 25.3373 25.337C25.824 24.8637 26.1986 24.2863 26.4333 23.6503C26.6346 23.133 26.8733 22.357 26.9386 20.9263C27.0093 19.3797 27.024 18.9157 27.024 14.9997C27.024 11.0837 27.0093 10.6197 26.9386 9.07301C26.8733 7.64234 26.6346 6.86634 26.4333 6.34901C26.1666 5.66501 25.8506 5.17567 25.3373 4.66234C24.8639 4.17577 24.2876 3.80129 23.6506 3.56634C23.1333 3.36501 22.3573 3.12634 20.9266 3.06101ZM13.1266 19.521C14.1729 19.9565 15.3378 20.0153 16.4225 19.6873C17.5073 19.3593 18.4445 18.6649 19.0741 17.7227C19.7037 16.7804 19.9867 15.6488 19.8747 14.5211C19.7627 13.3935 19.2626 12.3396 18.46 11.5397C17.9483 11.0283 17.3296 10.6368 16.6484 10.3932C15.9672 10.1496 15.2405 10.0602 14.5206 10.1312C13.8007 10.2022 13.1055 10.4319 12.485 10.8038C11.8646 11.1758 11.3343 11.6807 10.9324 12.2821C10.5305 12.8836 10.2669 13.5667 10.1607 14.2823C10.0544 14.9978 10.1082 15.7281 10.318 16.4204C10.5279 17.1127 10.8886 17.7498 11.3743 18.286C11.8599 18.8221 12.4584 19.2439 13.1266 19.521ZM9.66931 9.66901C10.3693 8.96897 11.2004 8.41368 12.115 8.03482C13.0297 7.65597 14.01 7.46097 15 7.46097C15.99 7.46097 16.9703 7.65597 17.8849 8.03482C18.7996 8.41368 19.6306 8.96897 20.3306 9.66901C21.0307 10.369 21.586 11.2001 21.9648 12.1147C22.3437 13.0294 22.5387 14.0097 22.5387 14.9997C22.5387 15.9897 22.3437 16.97 21.9648 17.8846C21.586 18.7992 21.0307 19.6303 20.3306 20.3303C18.9169 21.7441 16.9994 22.5384 15 22.5384C13.0006 22.5384 11.0831 21.7441 9.66931 20.3303C8.25553 18.9166 7.46128 16.9991 7.46128 14.9997C7.46128 13.0003 8.25553 11.0828 9.66931 9.66901ZM24.2106 8.58367C24.3841 8.42003 24.523 8.22325 24.619 8.00497C24.7151 7.7867 24.7664 7.55136 24.7699 7.31291C24.7733 7.07446 24.7289 6.83774 24.6393 6.61675C24.5496 6.39577 24.4166 6.19502 24.2479 6.02639C24.0793 5.85776 23.8785 5.72468 23.6576 5.63503C23.4366 5.54538 23.1999 5.50097 22.9614 5.50445C22.7229 5.50793 22.4876 5.55921 22.2693 5.65527C22.0511 5.75133 21.8543 5.8902 21.6906 6.06367C21.3724 6.40105 21.1982 6.84917 21.2049 7.31291C21.2117 7.77666 21.3989 8.21951 21.7269 8.54746C22.0548 8.87542 22.4977 9.06264 22.9614 9.06941C23.4251 9.07617 23.8733 8.90193 24.2106 8.58367Z" fill="white"/>
</svg>
