<svg width="24" height="24" viewBox="0 0 24 24" fill="none" xmlns="http://www.w3.org/2000/svg">
<g clip-path="url(#clip0_19_930)">
<path d="M18.0031 3.00005C16.9801 2.99216 15.966 3.18963 15.0208 3.58074C14.0755 3.97186 13.2184 4.54869 12.5001 5.27705C11.7818 4.54869 10.9246 3.97186 9.97938 3.58074C9.03414 3.18963 8.02002 2.99216 6.99708 3.00005C5.88695 2.99022 4.78837 3.22591 3.77998 3.69026C2.77158 4.15461 1.8783 4.83613 1.16408 5.68605C1.05539 5.82719 0.997595 6.00093 1.00008 6.17905V19.7691C1.00164 19.9296 1.04957 20.0863 1.1381 20.2202C1.22663 20.3542 1.35199 20.4597 1.49908 20.5241C1.64024 20.5875 1.79546 20.6132 1.94954 20.5986C2.10362 20.5841 2.25128 20.5298 2.37808 20.4411C3.74201 19.5174 5.35285 19.0267 7.00008 19.0331C8.88322 19.0072 10.7126 19.6608 12.1531 20.8741L12.4631 21.2291L12.8471 20.8741C14.2877 19.6611 16.1171 19.0079 18.0001 19.0341C19.6482 19.0278 21.2599 19.5192 22.6241 20.4441C22.751 20.5309 22.8979 20.584 23.0511 20.5982C23.2042 20.6123 23.3584 20.5872 23.4991 20.5251C23.6465 20.4609 23.7722 20.3555 23.8611 20.2215C23.9499 20.0876 23.9982 19.9308 24.0001 19.7701V6.17905C24.0027 6.00231 23.9461 5.82977 23.8391 5.68905C23.1246 4.83841 22.231 4.15623 21.222 3.69136C20.2131 3.22649 19.1139 2.99042 18.0031 3.00005ZM2.00008 19.4901V6.24005C2.62117 5.52718 3.38966 4.95769 4.25243 4.57094C5.11519 4.18418 6.05165 3.9894 6.99708 4.00005C7.94343 3.99156 8.88044 4.18769 9.74395 4.575C10.6075 4.96231 11.3771 5.53165 12.0001 6.24405V19.4971C10.5102 18.5354 8.77332 18.0268 7.00008 18.0331C5.22849 18.0304 3.49329 18.5367 2.00008 19.4901ZM23.0001 19.4901C21.5071 18.5362 19.7718 18.0305 18.0001 18.0331C16.2268 18.0268 14.4899 18.5354 13.0001 19.4971V6.24405C13.628 5.53867 14.398 4.97407 15.2595 4.5873C16.121 4.20053 17.0546 4.00034 17.999 3.99986C18.9433 3.99939 19.8771 4.19865 20.739 4.58456C21.6009 4.97047 22.3715 5.5343 23.0001 6.23905V19.4901Z" fill="black"/>
</g>
<defs>
<clipPath id="clip0_19_930">
<rect width="24" height="24" fill="white"/>
</clipPath>
</defs>
</svg>
