<svg width="32" height="32" viewBox="0 0 32 32" fill="none" xmlns="http://www.w3.org/2000/svg">
<path d="M30.5553 17.9517C30.6566 17.2401 30.7074 16.5223 30.7074 15.8036C30.7074 7.62294 24.0539 0.963125 15.8669 0.963125C15.1826 0.963125 14.4856 1.01381 13.8075 1.1025C12.4641 0.380187 10.9433 0 9.40988 0C4.28988 0 0.126724 4.16313 0.126724 9.27681C0.126724 10.7849 0.494224 12.274 1.1976 13.5984C1.08988 14.3271 1.03285 15.0685 1.03285 15.8036C1.03285 23.9842 7.68629 30.644 15.8733 30.644C16.4499 30.644 17.0329 30.6123 17.6032 30.5426C19.0923 31.4931 20.8159 32 22.5965 32C27.7165 32 31.8733 27.8369 31.8733 22.7232C31.8733 21.0377 31.417 19.3902 30.5553 17.9517H30.5553ZM27.6531 27.7798C26.3034 29.1295 24.5038 29.8773 22.5901 29.8773C21.177 29.8773 19.8147 29.4654 18.6424 28.686L18.1165 28.3375L17.4892 28.4198C16.9568 28.4895 16.4119 28.5212 15.8733 28.5212C14.1561 28.5212 12.4895 28.1854 10.9244 27.52C9.40991 26.88 8.04754 25.9612 6.88163 24.7952C5.71572 23.6293 4.79688 22.267 4.15685 20.7525C3.49154 19.1873 3.15566 17.5208 3.15566 15.8036C3.15566 15.1319 3.20635 14.4539 3.3141 13.7885L3.40279 13.2182L3.12401 12.7113C2.55369 11.6657 2.24951 10.4808 2.24951 9.27681C2.24951 7.36316 2.99088 5.56988 4.34691 4.21384C5.6966 2.86416 7.49622 2.11641 9.40991 2.11641C10.6329 2.11641 11.8432 2.43325 12.9015 3.02884L13.4084 3.314L13.985 3.23163C14.606 3.13656 15.246 3.09225 15.8733 3.09225C17.5906 3.09225 19.2571 3.42809 20.8223 4.09344C22.3367 4.73344 23.6991 5.65225 24.865 6.81819C26.0309 7.98413 26.9498 9.34647 27.5898 10.8609C28.2551 12.4261 28.5909 14.0926 28.5909 15.8098C28.5909 16.4688 28.5403 17.1342 28.4388 17.7869L28.3438 18.4079L28.6796 18.9465C29.383 20.0808 29.7568 21.3861 29.7568 22.7232C29.7505 24.6305 29.0028 26.4301 27.6531 27.7798V27.7798H27.6531ZM18.0848 14.4222L15.0813 13.7443C13.4464 13.3767 12.6226 12.8127 12.6226 12.0397C12.6226 11.4884 12.8507 11.0385 13.3006 10.6963C13.7505 10.3541 14.3906 10.183 15.208 10.183C16.1712 10.183 16.9569 10.3858 17.5525 10.7977C17.73 10.9117 18.1102 11.2856 18.6931 11.9129C19.0733 12.3185 19.4852 12.5276 19.9224 12.5276C20.3723 12.5276 20.7653 12.4009 21.082 12.1474C21.4052 11.8939 21.5636 11.5454 21.5636 11.1082C21.5636 10.1006 20.8983 9.22616 19.5676 8.48478C18.3129 7.78141 16.9379 7.43291 15.4424 7.43291C13.7188 7.43291 12.2868 7.80041 11.1462 8.52916C9.81547 9.39094 9.15013 10.6329 9.15013 12.2487C9.15013 14.4666 10.4365 15.905 13.0091 16.5577L17.0646 17.5842C18.0848 17.844 18.598 18.3952 18.598 19.2254C18.598 19.783 18.3509 20.2519 17.8566 20.6448C17.318 21.082 16.6019 21.3038 15.7148 21.3038C14.682 21.3038 13.8519 21.0567 13.2245 20.5624C13.0788 20.461 12.6795 20.0111 12.0269 19.2063C11.6214 18.7121 11.1588 18.4649 10.6519 18.4649C10.2146 18.4649 9.85344 18.6043 9.56829 18.8832C9.28313 19.162 9.14375 19.5168 9.14375 19.9541C9.14375 20.9489 9.67607 21.8234 10.7406 22.5774C11.9763 23.4836 13.6428 23.9335 15.7213 23.9335C17.8187 23.9335 19.4345 23.4582 20.5751 22.5077C21.6523 21.6333 22.1909 20.4483 22.1909 18.9592C22.2099 16.5639 20.8349 15.0495 18.0848 14.4221V14.4222Z" fill="white"/>
</svg>
