<svg width="55" height="55" viewBox="0 0 55 55" fill="none" xmlns="http://www.w3.org/2000/svg">
<path d="M10.0762 12.3105C9.57129 12.4287 9.89355 12.4072 9.47461 12.4609C7.68066 12.8477 9.0127 13.1914 10.0762 12.3105ZM41.626 13.0303C41.7549 12.9443 42.2061 12.5039 40.7988 12.0742C40.8848 12.5146 40.5088 12.4717 40.5088 12.7188C41.5508 13.6641 41.9805 15.3076 43.3125 15.6514C43.5703 14.4697 42.1309 13.8896 41.626 13.0303ZM9.12012 11.9668C9.28125 12.9229 10.001 10.957 10.0117 10.2588C9.73242 10.4199 9.45312 10.5811 9.16309 10.71C9.83984 11.0537 9.24902 11.4189 8.51855 11.9668C7.03613 13.8145 9.9043 10.5273 9.12012 11.9668ZM27.5 0C12.3105 0 0 12.3105 0 27.5C0 42.6787 12.3105 55 27.5 55C42.6895 55 55 42.6787 55 27.5C55 12.3105 42.6895 0 27.5 0ZM28.2305 9.2168L28.3594 9.25977C27.8438 9.92578 31.0449 11.8701 28.7461 12.0312C26.5977 12.6436 29.6484 11.4727 27.9834 11.6768C28.8643 10.4521 27.2852 10.4307 28.2305 9.2168ZM15.1895 10.9785C14.416 10.334 11.9883 11.8594 12.8369 11.4941C14.9424 10.667 12.9766 11.5801 13.4707 12.5684C13.0195 13.5029 13.3203 11.6445 12.2031 12.751C11.3975 12.9336 9.4209 14.7598 9.66797 14.2012C9.60352 15.0713 7.31543 16.1025 7.00391 17.5527C6.25195 19.5615 6.82129 17.4775 6.68164 16.6934C5.60742 15.3291 3.65234 19.0029 4.23242 20.4531C5.20996 18.7344 5.13477 20.2705 4.42578 21.0332C5.14551 22.3545 3.77051 24.0732 5.13477 25.0508C5.73633 25.1904 6.93945 23.0312 6.41309 25.2764C6.77832 23.332 7.42285 25.7383 8.46484 25.2012C8.5293 26.2217 9.16309 25.749 9.30273 26.9844C11.043 26.8555 12.6328 29.7988 10.5596 30.3574C10.8711 30.2715 11.4834 30.8193 12.1924 30.4004C13.3955 31.3564 16.5645 31.4746 16.6504 33.8379C14.4697 34.8799 16.1133 37.7373 14.2227 38.7578C12.0527 38.4355 13.4814 41.4326 12.5684 41.0889C12.9336 43.248 10.377 40.8096 11.3652 42.002C13.1807 43.1191 10.5703 42.8936 11.3867 43.71C10.4736 43.5166 11.9561 45.4072 12.2031 46.1055C13.5137 48.2324 11.0752 45.6328 10.3555 44.9238C9.66797 43.5488 8.0459 40.917 7.59473 38.7578C7.33691 35.6211 4.90918 33.5156 4.35059 30.4541C3.79199 28.7461 5.88672 26.0068 4.75879 25.0508C3.78125 24.2881 4.17871 21.6777 3.59863 20.3027C5.04883 14.0186 9.65723 8.72266 15.1895 5.58594C14.6201 6.00488 18.4443 4.50098 18.0039 4.86621C17.8857 5.13477 20.2383 3.8457 21.6562 3.65234C21.5059 3.67383 17.9717 4.94141 18.9492 4.76953C17.4346 5.51074 18.7988 5.0918 19.5508 4.71582C18.0469 5.82227 16.8867 5.51074 15.1787 6.48828C13.46 6.93945 13.8145 8.72266 12.5898 9.61426C13.3096 9.74316 15.1143 7.75586 16.167 7.05762C18.584 5.88672 14.9424 9.18457 17.2412 7.7666C16.4678 8.48633 16.6289 9.63574 16.1562 9.95801C15.9199 9.89355 17.0908 10.5166 15.1895 10.9785ZM18.9492 6.03711C18.7021 6.37012 18.3584 7.08984 18.1543 6.64941C17.875 6.78906 17.7676 7.39063 17.2412 6.90723C17.5527 6.68164 17.875 6.14453 17.2627 6.47754C17.542 6.17676 20.0342 5.32812 19.8945 5.00586C20.335 4.72656 20.292 4.58691 19.7871 4.75879C19.5293 4.67285 20.3994 3.94238 21.5596 3.8457C21.7207 3.8457 21.7852 3.95312 21.4951 3.9209C19.7441 4.45801 20.4961 4.30762 21.6777 3.9209C21.2266 4.17871 20.915 4.25391 20.8398 4.37207C22.0215 3.94238 20.7754 4.68359 21.0439 4.62988C20.7109 4.80176 21.0977 4.85547 20.4531 5.10254C20.5713 5.00586 19.4004 5.80078 20.0986 5.56445C19.4219 6.20898 19.1211 6.21973 18.9492 6.03711ZM19.9805 7.57324C20.002 6.54199 21.4844 5.88672 21.3018 5.83301C23.1279 4.97363 20.668 5.86523 22.1074 5.0918C22.6445 5.03809 23.7832 3.31934 25.3623 3.21191C27.1025 2.68555 26.2969 3.24414 27.5859 2.75L27.3281 2.96484C27.1025 2.99707 27.3818 3.39453 26.5654 3.99609C26.4795 4.93066 25.0078 4.50098 25.7383 5.5C25.2656 4.82324 24.5566 5.47852 25.4482 5.54297C24.4922 6.27344 22.2686 6.40234 21.2051 7.61621C20.5176 8.60449 19.8838 8.29297 19.9805 7.57324ZM27.6182 11.0107C26.8877 12.7725 26.1787 10.7529 27.4678 10.4307C27.79 10.6025 27.9189 10.6562 27.6182 11.0107ZM24.8682 7.4873C24.6533 6.69238 24.8252 7.11133 26.1035 6.73535C26.9844 7.36914 25.3193 7.78809 24.8682 7.4873ZM44.8701 39.0156C43.8604 37.2754 46.0947 35.6641 46.8467 34.2031C46.75 35.9111 46.5352 37.5977 44.8701 39.0156ZM48.6729 19.1318C47.5771 19.2178 46.5889 19.4756 45.6006 18.8525C43.3232 16.3604 46.0195 21.667 46.7715 19.4971C49.4785 20.5283 46.7285 24.9756 45.0205 24.5137C44.0645 22.4512 42.8828 20.1846 40.7988 19.1748C42.3994 20.9473 43.1943 23.1279 44.9131 24.7285C45.0312 26.9629 47.2979 23.9121 47.1582 25.6416C47.373 28.6172 43.7959 30.4004 44.4189 33.3867C45.751 36.1045 41.8516 36.5986 42.292 39.0371C40.7236 40.7881 39.0479 43.1514 36.2334 42.7754C36.2334 41.293 35.4814 40.0361 35.3096 38.5107C33.7842 36.5771 36.9209 34.5039 34.9766 32.4844C32.7314 31.9795 35.4385 28.8857 33.1289 29.1758C31.7432 27.79 29.7129 29.1328 27.7256 29.1436C25.2334 29.3799 22.666 26.082 23.7725 23.751C22.8916 21.3232 26.5654 20.6143 26.6621 18.4766C28.4238 17.0049 30.9268 17.1875 33.3115 16.8438C33.1396 18.5518 34.9443 18.5625 36.3086 19.1318C37.0713 17.2842 39.4453 19.4326 41.0674 18.2617C41.626 15.5332 39.4883 17.1768 38.2637 16.3066C36.7812 14.1367 41.4326 15.1895 40.9492 14.0508C39.1445 14.04 40.165 11.8271 38.8867 13.0625C40.0361 13.2666 38.6826 14.1689 38.7148 13.1377C36.9746 12.6328 38.6504 15.1143 37.7695 15.3506C36.4268 14.792 37.0605 15.9844 37.2002 16.167C36.6201 17.4238 35.9111 14.3193 34.2676 14.4053C32.6348 12.9121 33.623 15.082 35.041 15.4365C34.7402 15.5225 35.2129 16.7578 34.8369 16.2314C33.666 14.6201 31.4424 13.5459 30.1211 15.5225C29.9814 17.3701 26.2217 17.8965 26.8232 15.7373C25.9424 13.5029 29.5518 15.6729 29.2188 13.8896C26.8984 12.3535 29.8525 12.8477 30.6367 11.4082C32.4199 11.4619 30.7119 9.94727 31.5498 9.50684C31.4639 11.1504 32.9141 10.8389 34.0635 10.5273C33.7842 9.58203 34.751 9.61426 34.1602 8.83008C36.8242 7.7666 32.1299 9.32422 33.0752 6.99316C31.9258 6.19824 32.5918 8.74414 33.0752 9.0127C33.1074 9.79688 32.4414 10.7637 31.5283 9.12012C30.1963 9.99023 30.3359 8.23926 30.25 8.42188C30.0996 7.74512 31.2598 7.71289 31.2705 6.53125C31.1738 5.7793 31.1953 5.38184 31.7324 5.33887C31.7754 5.44629 33.9346 5.47852 34.6973 6.37012C32.6133 5.95117 34.3857 6.71387 35.3203 7.14355C34.3213 6.35938 35.7178 7.14355 34.9014 6.25195C35.2236 6.31641 34.0098 5.02734 35.2559 6.15527C34.5791 5.34961 36.5771 5.58594 35.3955 4.98438C37.125 5.46777 36.1045 5.02734 35.084 4.58691C32.2695 2.91113 40.0576 6.85352 36.8779 5.10254C38.9082 5.54297 32.5381 3.53418 35.4385 4.41504C34.332 3.93164 35.4062 4.2002 36.4053 4.51172C34.6113 3.95312 31.9258 2.91113 32.0332 2.86816C32.6562 2.91113 33.2686 3.05078 33.8594 3.22266C35.6963 3.77051 33.333 3.09375 33.8379 3.10449C40.1543 4.72656 45.6865 8.95898 49.0488 14.4912C49.833 15.3184 51.9707 20.7861 50.8535 18.3584C51.3584 20.292 51.4336 22.376 51.7021 24.3525C51.1436 23.7295 50.5205 21.4307 49.9834 20.1523C49.7578 20.6465 49.5 19.4541 48.6729 19.1318Z" fill="white"/>
</svg>
