<svg width="24" height="24" viewBox="0 0 24 24" fill="none" xmlns="http://www.w3.org/2000/svg">
<path d="M11.4375 14.2875C11.4375 14.6062 11.7 14.85 12 14.85C12.3188 14.85 12.5625 14.5875 12.5625 14.2875V5.71875C12.5625 5.4 12.3 5.15625 12 5.15625C11.6812 5.15625 11.4375 5.41875 11.4375 5.71875V14.2875Z" fill="black"/>
<path d="M11.2875 11.0438C11.0813 10.8 10.725 10.7812 10.4813 10.9875C10.2375 11.1937 10.2187 11.55 10.425 11.7938L14.4188 16.3688C14.625 16.6125 14.9812 16.6312 15.225 16.425C15.4687 16.2187 15.4875 15.8625 15.2812 15.6188L11.2875 11.0438Z" fill="black"/>
<path d="M11.775 23.2124C5.5875 23.2124 0.5625 18.1687 0.5625 11.9999C0.5625 5.83115 5.5875 0.806152 11.775 0.806152C17.9438 0.806152 22.9875 5.83115 22.9875 12.0187C22.9688 18.1687 17.9438 23.2124 11.775 23.2124ZM11.775 1.9124C6.20625 1.9124 1.66875 6.43115 1.66875 11.9999C1.66875 17.5687 6.20625 22.0874 11.7563 22.0874C17.3063 22.0874 21.8438 17.5499 21.8438 11.9999C21.8438 6.4499 17.325 1.9124 11.775 1.9124Z" fill="black"/>
</svg>
