<svg width="40" height="40" viewBox="0 0 40 40" fill="none" xmlns="http://www.w3.org/2000/svg">
<g clip-path="url(#clip0_23_238)">
<path d="M36.5186 40C36.6785 40 36.8382 39.9588 36.9815 39.876C37.2679 39.7106 37.4443 39.4049 37.4443 39.0743V0.925776C37.4443 0.595097 37.2679 0.289413 36.9815 0.124074C36.695 -0.041358 36.3421 -0.041358 36.0557 0.124074L3.01811 19.1983C2.73168 19.3636 2.55523 19.6693 2.55523 20C2.55523 20.3307 2.73168 20.6363 3.01811 20.8017L36.0557 39.876C36.1988 39.9588 36.3587 40 36.5186 40ZM35.5928 2.52918V37.4709L5.33249 19.9999L35.5928 2.52918Z" fill="black"/>
</g>
<defs>
<clipPath id="clip0_23_238">
<rect width="40" height="40" fill="white" transform="matrix(-1 0 0 1 40 0)"/>
</clipPath>
</defs>
</svg>
