<svg width="28" height="28" viewBox="0 0 28 28" fill="none" xmlns="http://www.w3.org/2000/svg">
<path fill-rule="evenodd" clip-rule="evenodd" d="M10.572 9.95899H15.524V12.4257C16.2374 11.007 18.0667 9.73233 20.8147 9.73233C26.0827 9.73233 27.3334 12.5563 27.3334 17.7377V27.3337H22V18.9177C22 15.967 21.2867 14.303 19.4707 14.303C16.952 14.303 15.9054 16.0963 15.9054 18.9163V27.3337H10.572V9.95899ZM1.42669 27.107H6.76002V9.73233H1.42669V27.107ZM7.52402 4.06699C7.52422 4.51403 7.43556 4.95664 7.2632 5.36911C7.09084 5.78158 6.83822 6.15568 6.52002 6.46966C5.87522 7.11049 5.00243 7.4692 4.09335 7.46699C3.18587 7.46638 2.3151 7.10859 1.66935 6.47099C1.3523 6.15594 1.10053 5.78142 0.928479 5.3689C0.756422 4.95638 0.667459 4.51396 0.666687 4.06699C0.666687 3.16433 1.02669 2.30033 1.67069 1.66299C2.31587 1.02454 3.18701 0.666593 4.09469 0.666993C5.00402 0.666993 5.87602 1.02566 6.52002 1.66299C7.16269 2.30033 7.52402 3.16433 7.52402 4.06699Z" fill="white"/>
</svg>
