<svg width="30" height="27" viewBox="0 0 30 27" fill="none" xmlns="http://www.w3.org/2000/svg">
<path d="M27.2917 0.52904C26.9277 0.555153 26.5704 0.639357 26.2338 0.778367H26.2293C25.9061 0.904707 24.3697 1.542 22.034 2.508L13.6638 5.98404C7.6577 8.47731 1.75367 10.9326 1.75367 10.9326L1.82397 10.9057C1.82397 10.9057 1.41691 11.0377 0.991712 11.325C0.729027 11.4898 0.502987 11.7055 0.327268 11.9589C0.118637 12.2608 -0.0491752 12.7226 0.0131873 13.2C0.115235 14.0072 0.645883 14.4913 1.02686 14.7585C1.41238 15.0291 1.77975 15.1555 1.77975 15.1555H1.78882L7.32548 16.9947C7.57379 17.7807 9.01266 22.4452 9.35849 23.5196C9.56259 24.1614 9.76101 24.5628 10.0093 24.8691C10.1295 25.0257 10.2701 25.1565 10.4391 25.2616C10.5269 25.312 10.6205 25.3517 10.718 25.3801L10.6613 25.3667C10.6783 25.3711 10.6919 25.3846 10.7044 25.389C10.7497 25.4013 10.7804 25.4058 10.8382 25.4147C11.7147 25.6764 12.4188 25.1397 12.4188 25.1397L12.4585 25.1084L15.7274 22.1735L21.2062 26.3181L21.331 26.3707C22.4728 26.8649 23.6293 26.5898 24.2405 26.1046C24.8561 25.616 25.0954 24.991 25.0954 24.991L25.1351 24.8904L29.3689 3.50307C29.4891 2.97535 29.5197 2.48117 29.3871 2.00152C29.2502 1.51609 28.9344 1.09859 28.5015 0.830915C28.138 0.613023 27.7165 0.507851 27.2917 0.52904ZM27.1772 2.82106C27.1726 2.89149 27.1862 2.88367 27.1545 3.01895V3.03125L22.9603 24.1961C22.9422 24.2263 22.9116 24.2922 22.8277 24.3582C22.7392 24.4275 22.6689 24.4711 22.3004 24.3269L15.5993 19.261L11.5514 22.8991L12.4018 17.5436L23.3504 7.48112C23.8017 7.06744 23.6508 6.98023 23.6508 6.98023C23.6826 6.47263 22.9694 6.83153 22.9694 6.83153L9.16347 15.265L9.15893 15.2427L2.5417 13.0457V13.0412L2.5247 13.0379C2.5363 13.0341 2.54765 13.0296 2.55871 13.0244L2.595 13.0066L2.63015 12.9943C2.63015 12.9943 8.53871 10.539 14.5448 8.04574C17.5518 6.79687 20.5815 5.53905 22.9116 4.56858C24.2935 3.99502 25.6768 3.42481 27.0615 2.85795C27.1545 2.82217 27.1103 2.82217 27.1772 2.82217V2.82106Z" fill="white"/>
</svg>
