<svg width="32" height="24" viewBox="0 0 32 24" fill="none" xmlns="http://www.w3.org/2000/svg">
<path d="M32 11.8966C32 11.8153 32 11.723 31.9964 11.6159C31.9929 11.3167 31.9857 10.9806 31.9786 10.6223C31.95 9.59187 31.9 8.5651 31.8214 7.59741C31.7143 6.26408 31.5571 5.15235 31.3429 4.31764C31.1167 3.44654 30.6735 2.65207 30.0574 2.01365C29.4413 1.37523 28.674 0.915221 27.8321 0.679593C26.8214 0.398892 24.8429 0.2253 22.0571 0.11819C20.7321 0.0664819 19.3143 0.0332408 17.8964 0.0147736C17.4 0.00738666 16.9393 0.00369344 16.525 0H15.475C15.0607 0.00369344 14.6 0.00738666 14.1036 0.0147736C12.6857 0.0332408 11.2679 0.0664819 9.94286 0.11819C7.15714 0.228993 5.175 0.402585 4.16786 0.679593C3.32572 0.914642 2.5581 1.37446 1.94194 2.01297C1.32578 2.65148 0.882715 3.44625 0.657143 4.31764C0.439286 5.15235 0.285714 6.26408 0.178571 7.59741C0.1 8.5651 0.0499999 9.59187 0.0214285 10.6223C0.0107142 10.9806 0.0071428 11.3167 0.00357137 11.6159C0.00357137 11.723 0 11.8153 0 11.8966V12.1034C0 12.1847 -5.45489e-08 12.277 0.00357137 12.3841C0.0071428 12.6833 0.0142857 13.0194 0.0214285 13.3777C0.0499999 14.4081 0.1 15.4349 0.178571 16.4026C0.285714 17.7359 0.442857 18.8476 0.657143 19.6824C1.11429 21.4515 2.45714 22.8476 4.16786 23.3204C5.175 23.6011 7.15714 23.7747 9.94286 23.8818C11.2679 23.9335 12.6857 23.9668 14.1036 23.9852C14.6 23.9926 15.0607 23.9963 15.475 24H16.525C16.9393 23.9963 17.4 23.9926 17.8964 23.9852C19.3143 23.9668 20.7321 23.9335 22.0571 23.8818C24.8429 23.771 26.825 23.5974 27.8321 23.3204C29.5429 22.8476 30.8857 21.4552 31.3429 19.6824C31.5607 18.8476 31.7143 17.7359 31.8214 16.4026C31.9 15.4349 31.95 14.4081 31.9786 13.3777C31.9893 13.0194 31.9929 12.6833 31.9964 12.3841C31.9964 12.277 32 12.1847 32 12.1034V11.8966ZM29.4286 12.0886C29.4286 12.1662 29.4286 12.2512 29.425 12.3509C29.4214 12.639 29.4143 12.9566 29.4071 13.3001C29.3821 14.2825 29.3321 15.265 29.2571 16.1773C29.1607 17.3666 29.025 18.3416 28.8571 18.9954C28.6357 19.8486 27.9857 20.5245 27.1643 20.7498C26.4143 20.9566 24.525 21.1228 21.9571 21.2225C20.6571 21.2742 19.2571 21.3075 17.8607 21.3259C17.3714 21.3333 16.9179 21.337 16.5107 21.337H15.4893L14.1393 21.3259C12.7429 21.3075 11.3464 21.2742 10.0429 21.2225C7.475 21.1191 5.58214 20.9566 4.83571 20.7498C4.01429 20.5208 3.36429 19.8486 3.14286 18.9954C2.975 18.3416 2.83929 17.3666 2.74286 16.1773C2.66786 15.265 2.62143 14.2825 2.59286 13.3001C2.58214 12.9566 2.57857 12.6353 2.575 12.3509C2.575 12.2512 2.57143 12.1625 2.57143 12.0886V11.9114C2.57143 11.8338 2.57143 11.7488 2.575 11.6491C2.57857 11.361 2.58571 11.0434 2.59286 10.6999C2.61786 9.71745 2.66786 8.73499 2.74286 7.82271C2.83929 6.63342 2.975 5.65836 3.14286 5.00462C3.36429 4.15143 4.01429 3.47553 4.83571 3.25023C5.58571 3.0434 7.475 2.87719 10.0429 2.77747C11.3429 2.72576 12.7429 2.69252 14.1393 2.67405C14.6286 2.66667 15.0821 2.66297 15.4893 2.66297H16.5107L17.8607 2.67405C19.2571 2.69252 20.6536 2.72576 21.9571 2.77747C24.525 2.88089 26.4179 3.0434 27.1643 3.25023C27.9857 3.47922 28.6357 4.15143 28.8571 5.00462C29.025 5.65836 29.1607 6.63342 29.2571 7.82271C29.3321 8.73499 29.3786 9.71745 29.4071 10.6999C29.4179 11.0434 29.4214 11.3647 29.425 11.6491C29.425 11.7488 29.4286 11.8375 29.4286 11.9114V12.0886ZM12.8214 16.9492L21.1071 11.9631L12.8214 7.05078V16.9492Z" fill="white"/>
</svg>
