<svg width="29" height="21" viewBox="0 0 29 21" fill="none" xmlns="http://www.w3.org/2000/svg">
<path d="M9.90625 20.9531C9.65625 20.9531 9.42188 20.9137 9.20313 20.835C8.98438 20.7575 8.78125 20.625 8.59375 20.4375L0.531251 12.375C0.187501 12.0312 0.0231264 11.5856 0.0381264 11.0381C0.0543764 10.4919 0.234376 10.0469 0.578126 9.70312C0.921876 9.35937 1.35938 9.1875 1.89063 9.1875C2.42188 9.1875 2.85938 9.35937 3.20313 9.70312L9.90625 16.4062L25.7969 0.515625C26.1406 0.171875 26.5863 0 27.1338 0C27.68 0 28.125 0.171875 28.4688 0.515625C28.8125 0.859375 28.9844 1.30437 28.9844 1.85063C28.9844 2.39812 28.8125 2.84375 28.4688 3.1875L11.2188 20.4375C11.0313 20.625 10.8281 20.7575 10.6094 20.835C10.3906 20.9137 10.1563 20.9531 9.90625 20.9531Z" fill="url(#paint0_linear_49_82)"/>
<defs>
<linearGradient id="paint0_linear_49_82" x1="14.5108" y1="0" x2="14.5108" y2="20.9531" gradientUnits="userSpaceOnUse">
<stop stop-color="#FF9623"/>
<stop offset="1" stop-color="#E5721A"/>
</linearGradient>
</defs>
</svg>