<svg width="40" height="40" viewBox="0 0 40 40" fill="none" xmlns="http://www.w3.org/2000/svg">
<g clip-path="url(#clip0_23_234)">
<path d="M3.48142 40C3.32154 40 3.16175 39.9588 3.01854 39.876C2.73211 39.7106 2.55566 39.4049 2.55566 39.0743V0.925776C2.55566 0.595097 2.73211 0.289413 3.01854 0.124074C3.30497 -0.041358 3.65786 -0.041358 3.94429 0.124074L36.9819 19.1983C37.2683 19.3636 37.4448 19.6693 37.4448 20C37.4448 20.3307 37.2683 20.6363 36.9819 20.8017L3.94429 39.876C3.80117 39.9588 3.64129 40 3.48142 40ZM4.40717 2.52918V37.4709L34.6675 19.9999L4.40717 2.52918Z" fill="#005BBB"/>
</g>
<defs>
<clipPath id="clip0_23_234">
<rect width="40" height="40" fill="white"/>
</clipPath>
</defs>
</svg>
