<svg width="32" height="30" viewBox="0 0 32 30" fill="none" xmlns="http://www.w3.org/2000/svg">
<g clip-path="url(#clip0_16_905)">
<path d="M7.40991 29.5835C7.61391 29.5832 7.81441 29.5315 7.99324 29.4335L16.0766 25.1835L24.1599 29.4335C24.3653 29.5437 24.5975 29.5944 24.8301 29.5797C25.0628 29.5649 25.2867 29.4854 25.4766 29.3502C25.6662 29.2112 25.8133 29.0222 25.9016 28.8044C25.9899 28.5865 26.0159 28.3485 25.9766 28.1169L24.4099 19.1169L30.9766 12.7502C31.1412 12.5854 31.2565 12.378 31.3095 12.1512C31.3625 11.9245 31.3511 11.6874 31.2766 11.4668C31.2068 11.2454 31.0759 11.0481 30.899 10.8977C30.7221 10.7474 30.5064 10.65 30.2766 10.6168L21.2433 9.30012L17.1932 1.11679C17.0781 0.923422 16.9144 0.763289 16.7187 0.652089C16.5229 0.540889 16.3017 0.482422 16.0766 0.482422C15.8514 0.482422 15.6302 0.540889 15.4344 0.652089C15.2387 0.763289 15.0752 0.923422 14.9599 1.11679L10.9099 9.30012L1.87658 10.6168C1.64675 10.65 1.43108 10.7474 1.25408 10.8977C1.07725 11.0481 0.946411 11.2454 0.876577 11.4668C0.802078 11.6874 0.790747 11.9245 0.843746 12.1512C0.896746 12.378 1.01208 12.5854 1.17658 12.7502L7.74324 19.1169L6.19324 28.1169C6.15391 28.3485 6.17991 28.5865 6.26824 28.8044C6.35658 29.0222 6.50375 29.2112 6.69324 29.3502C6.90425 29.496 7.15341 29.5772 7.40991 29.5835ZM16.0766 22.5335C15.8749 22.5359 15.6761 22.5814 15.4932 22.6669L9.07658 26.0002L10.2932 18.8502C10.3262 18.6495 10.3117 18.444 10.2511 18.2502C10.1902 18.0562 10.0849 17.8792 9.94324 17.7335L4.74325 12.7335L11.9266 11.6669C12.1252 11.6352 12.3136 11.5567 12.4757 11.4379C12.6381 11.3191 12.7697 11.1633 12.8599 10.9835L16.0766 4.48346L19.2932 11.0001C19.3834 11.18 19.5151 11.3357 19.6774 11.4546C19.8397 11.5734 20.0279 11.6519 20.2266 11.6835L27.4099 12.7335L22.2099 17.7335C22.0684 17.8792 21.963 18.0562 21.9022 18.2502C21.8414 18.444 21.8269 18.6495 21.8599 18.8502L23.0766 26.0502L16.6599 22.7169C16.4811 22.6139 16.2821 22.5514 16.0766 22.5335Z" fill="black"/>
</g>
<defs>
<clipPath id="clip0_16_905">
<rect width="32" height="30" fill="white" transform="matrix(-1 0 0 1 32 0)"/>
</clipPath>
</defs>
</svg>
