<svg width="32" height="32" viewBox="0 0 32 32" fill="none" xmlns="http://www.w3.org/2000/svg">
<path d="M27.2232 7.00225C26.9268 7.02426 26.6359 7.09522 26.3618 7.21237H26.3581C26.095 7.31884 24.8439 7.85592 22.9419 8.67001L16.1262 11.5994C11.2356 13.7006 6.42799 15.7697 6.42799 15.7697L6.48523 15.7471C6.48523 15.7471 6.15377 15.8583 5.80754 16.1005C5.59364 16.2394 5.40957 16.4211 5.26649 16.6347C5.0966 16.8891 4.95996 17.2783 5.01074 17.6806C5.09383 18.3609 5.52593 18.7689 5.83616 18.9941C6.15008 19.2221 6.44922 19.3286 6.44922 19.3286H6.45661L10.965 20.8785C11.1672 21.5409 12.3389 25.4719 12.6205 26.3774C12.7867 26.9182 12.9483 27.2565 13.1505 27.5147C13.2483 27.6466 13.3628 27.7568 13.5004 27.8454C13.5719 27.8879 13.6482 27.9214 13.7275 27.9453L13.6813 27.934C13.6952 27.9377 13.7063 27.949 13.7164 27.9528C13.7534 27.9632 13.7783 27.9669 13.8254 27.9745C14.5391 28.195 15.1124 27.7427 15.1124 27.7427L15.1448 27.7163L17.8066 25.243L22.2679 28.7358L22.3695 28.7801C23.2992 29.1966 24.241 28.9648 24.7387 28.5558C25.24 28.1441 25.4348 27.6174 25.4348 27.6174L25.4671 27.5326L28.9147 9.50859C29.0126 9.06386 29.0375 8.64739 28.9295 8.24317C28.818 7.83408 28.5609 7.48223 28.2084 7.25666C27.9124 7.07303 27.5692 6.9844 27.2232 7.00225ZM27.13 8.93383C27.1263 8.99319 27.1374 8.9866 27.1115 9.10061V9.11097L23.6963 26.9475C23.6815 26.9729 23.6566 27.0285 23.5882 27.0841C23.5162 27.1425 23.459 27.1792 23.1589 27.0577L17.7023 22.7884L14.4061 25.8545L15.0986 21.3412L24.0139 12.8611C24.3813 12.5124 24.2585 12.4389 24.2585 12.4389C24.2844 12.0112 23.7036 12.3136 23.7036 12.3136L12.4617 19.4209L12.458 19.402L7.06967 17.5506V17.5468L7.05582 17.544C7.06527 17.5408 7.07452 17.537 7.08352 17.5327L7.11307 17.5176L7.14169 17.5072C7.14169 17.5072 11.9529 15.4381 16.8436 13.3369C19.2922 12.2844 21.7592 11.2244 23.6566 10.4065C24.7818 9.92318 25.9082 9.44264 27.0358 8.96492C27.1115 8.93477 27.0755 8.93477 27.13 8.93477V8.93383Z" fill="white"/>
<path d="M6.00031 0C2.68611 0 3.25568e-08 2.68611 3.25568e-08 5.99969C-8.20546e-05 6.78768 0.155065 7.56798 0.456579 8.29601C0.758094 9.02403 1.20007 9.68554 1.75727 10.2427C2.31446 10.7999 2.97597 11.2419 3.70399 11.5434C4.43202 11.8449 5.21232 12.0001 6.00031 12C9.31326 12 12 9.31389 12 5.99969C12 2.68611 9.31326 0 6.00031 0ZM6.56028 2.16614C7.14525 2.16614 7.31712 2.50549 7.31712 2.8936C7.31712 3.37795 6.92964 3.82605 6.2678 3.82605C5.71408 3.82605 5.45034 3.54794 5.46659 3.08734C5.46659 2.69923 5.79095 2.16614 6.56028 2.16614ZM5.06161 9.59325C4.66163 9.59325 4.36977 9.35014 4.64913 8.28457L5.10723 6.39404C5.1866 6.09156 5.19973 5.97031 5.10723 5.97031C4.98787 5.97031 4.46852 6.17905 4.16228 6.38529L3.96292 6.05843C4.93474 5.2466 6.05218 4.77038 6.53028 4.77038C6.93026 4.77038 6.99651 5.24285 6.79715 5.97031L6.27217 7.95771C6.17905 8.30894 6.21905 8.43019 6.31217 8.43019C6.43216 8.43019 6.82464 8.28519 7.21087 7.98083L7.43711 8.28457C6.49154 9.22952 5.46097 9.59325 5.06161 9.59325Z" fill="white"/>
</svg>
