<svg width="69" height="69" viewBox="0 0 69 69" fill="none" xmlns="http://www.w3.org/2000/svg">
<path d="M36.57 31.05C35.19 30.705 33.81 30.015 32.775 28.98C31.74 28.635 31.395 27.6 31.395 26.91C31.395 26.22 31.74 25.185 32.43 24.84C33.465 24.15 34.5 23.46 35.535 23.805C37.605 23.805 39.33 24.84 40.365 26.22L43.47 22.08C42.435 21.045 41.4 20.355 40.365 19.665C39.33 18.975 37.95 18.63 36.57 18.63V13.8H32.43V18.63C30.705 18.975 28.98 20.01 27.6 21.39C26.22 23.115 25.185 25.185 25.53 27.255C25.53 29.325 26.22 31.395 27.6 32.775C29.325 34.5 31.74 35.535 33.81 36.57C34.845 36.915 36.225 37.605 37.26 38.295C37.95 38.985 38.295 40.02 38.295 41.055C38.295 42.09 37.95 43.125 37.26 44.16C36.225 45.195 34.845 45.54 33.81 45.54C32.43 45.54 30.705 45.195 29.67 44.16C28.635 43.47 27.6 42.435 26.91 41.4L23.46 45.195C24.495 46.575 25.53 47.61 26.91 48.645C28.635 49.68 30.705 50.715 32.775 50.715V55.2H36.57V50.025C38.64 49.68 40.365 48.645 41.745 47.265C43.47 45.54 44.505 42.78 44.505 40.365C44.505 38.295 43.815 35.88 42.09 34.5C40.365 32.775 38.64 31.74 36.57 31.05ZM34.5 6.90002C19.32 6.90002 6.89999 19.32 6.89999 34.5C6.89999 49.68 19.32 62.1 34.5 62.1C49.68 62.1 62.1 49.68 62.1 34.5C62.1 19.32 49.68 6.90002 34.5 6.90002ZM34.5 58.305C21.39 58.305 10.695 47.61 10.695 34.5C10.695 21.39 21.39 10.695 34.5 10.695C47.61 10.695 58.305 21.39 58.305 34.5C58.305 47.61 47.61 58.305 34.5 58.305Z" fill="white"/>
</svg>
