<svg width="69" height="69" viewBox="0 0 69 69" fill="none" xmlns="http://www.w3.org/2000/svg">
<path d="M5.75 54.625H63.25M11.5 20.125C11.5 18.6 12.1058 17.1375 13.1841 16.0591C14.2625 14.9808 15.725 14.375 17.25 14.375H51.75C53.275 14.375 54.7375 14.9808 55.8159 16.0591C56.8942 17.1375 57.5 18.6 57.5 20.125V46H11.5V20.125Z" stroke="white" stroke-width="4" stroke-linecap="round" stroke-linejoin="round"/>
<path d="M29.6277 29.032L23.3007 31.35L29.6277 33.649V36.024L20.5837 32.585V30.115L29.6277 26.676V29.032Z" fill="white"/>
<path d="M36.4228 22.002H39.0638L32.7938 39.9H30.1528L36.4228 22.002Z" fill="white"/>
<path d="M48.4422 30.115V32.585L39.3982 36.024V33.649L45.7252 31.35L39.3982 29.032V26.676L48.4422 30.115Z" fill="white"/>
</svg>
